<svg width="1129" height="348" viewBox="0 0 1129 348" fill="none" xmlns="http://www.w3.org/2000/svg">
<path fill-rule="evenodd" clip-rule="evenodd" d="M119.5 1.04404C74.262 8.05604 35.693 35.726 15.716 75.5C5.27304 96.291 0.757031 114.914 0.683031 137.5C0.519031 187.24 22.691 229.532 83.485 295.442C101.428 314.894 127.208 341.106 131.4 344.16C135.796 347.361 141.331 347.916 145.8 345.602C147.285 344.833 156.605 335.946 166.51 325.852C241.485 249.455 269.523 207.332 276.45 160.683C284.491 106.529 261.868 54.263 217.228 23.862C202.856 14.074 184.755 6.37904 167 2.50904C158.113 0.572036 128.445 -0.34296 119.5 1.04404ZM121.5 22.109C78.222 28.345 40.106 60.676 26.724 102.5C21.905 117.562 21.5 120.588 21.5 141.5C21.5 161.669 22.293 167.942 26.304 179.479L27.687 183.459L29.376 178.374C31.692 171.401 35.916 165.027 40.766 161.186C49.819 154.016 64.072 150.132 76.463 151.459C82.138 152.067 83.049 152.426 82.495 153.837C76.862 168.215 76.616 169.719 76.203 192.25L75.804 214H80.402H85V194.21C85 179.666 85.406 172.862 86.531 168.542C92.898 144.1 114.916 128.91 142 130.277C164.809 131.428 182.088 143.419 190.101 163.66C192.221 169.013 192.445 171.354 192.79 191.75L193.166 214H197.714H202.261L201.714 192.25C201.168 170.511 200.484 165.719 196.625 156.596C195.717 154.45 195.243 152.425 195.571 152.096C195.9 151.768 201.418 151.532 207.834 151.571C217.567 151.631 220.494 152.029 225.5 153.978C233.003 156.898 237.636 159.831 241.552 164.141C246.423 169.502 247.13 170.664 249.499 177.207L251.742 183.4L253.324 177.95C259.595 156.352 259.609 128.679 253.361 107.117C238.628 56.277 191.21 20.576 139.14 21.122C132.738 21.189 124.8 21.633 121.5 22.109ZM131.081 53.533C124.15 55.467 120.275 57.894 115.032 63.581C108.313 70.871 106.502 75.842 106.501 87C106.5 95.216 106.862 97.273 109.181 102.22C121.147 127.752 156.626 127.788 169.182 102.281C171.998 96.562 172.382 94.796 172.366 87.639C172.352 81.651 171.764 78.007 170.14 73.853C164.061 58.299 146.586 49.208 131.081 53.533ZM675.198 84.617C666.562 89.019 667.002 103.847 675.906 108.451C682.028 111.617 689.96 109.762 693.518 104.332C697.099 98.866 694.99 89.005 689.465 85.385C685.789 82.977 679.12 82.618 675.198 84.617ZM361 85.362C340.952 89.717 328.732 106.362 332.121 124.697C334.978 140.151 345.245 148.303 371.5 155.961C389.01 161.069 394.988 165.734 394.996 174.3C395.015 193.535 363.108 196.466 351.097 178.332C349.451 175.848 347.94 173.321 347.738 172.715C347.5 171.999 343.801 172.746 337.135 174.86C325.599 178.517 325.932 177.871 330.692 187.34C338.049 201.975 352.193 209.325 373 209.325C389.246 209.325 400.91 205.161 408.879 196.515C414.921 189.961 417.263 184.142 417.796 174.367C418.868 154.671 409.018 144.244 382 136.471C360.287 130.225 355.118 126.618 355.035 117.654C354.953 108.756 362.443 103.404 373.831 104.222C380.684 104.714 387.131 107.25 390.153 110.644C391.063 111.665 392.796 114.413 394.004 116.75C395.213 119.087 396.405 121 396.654 121C396.902 121 401.149 119.79 406.091 118.31L415.076 115.621L414.463 112.56C412.626 103.387 404.971 93.577 396.131 89.067C386.946 84.381 372.52 82.86 361 85.362ZM58.615 95.472C53.717 97.218 47.322 103.293 44.903 108.5C42.409 113.867 42.407 124.128 44.9 129.5C49.191 138.747 57.514 143.956 68 143.956C82.712 143.956 92.927 133.84 92.978 119.218C93.004 111.866 91.52 107.8 86.882 102.519C80.245 94.959 68.365 91.997 58.615 95.472ZM199.5 95.903C180.524 104.721 179.72 132.203 198.168 141.397C204.961 144.782 214.308 144.997 220.673 141.916C226.062 139.308 232.28 132.346 233.824 127.193C238.929 110.154 227.108 94.044 209.5 94.044C205.753 94.044 201.998 94.742 199.5 95.903ZM620.75 98.751L612 100.261V110.631V121H605H598L597.998 130.25L597.995 139.5L604.911 139.171L611.827 138.843L612.257 165.171C612.738 194.569 613.247 197.482 618.882 203.118C623.194 207.43 628.033 208.987 637.145 208.994C644.558 209.001 656.79 205.71 657.646 203.479C657.944 202.705 656.907 198.884 655.343 194.989C652.71 188.429 652.315 187.949 650 188.495C642.385 190.288 638.474 190.204 635.989 188.194L633.5 186.18L633.184 162.59L632.867 139H643.934H655V130V121H643.941H632.882L633.191 108.998C633.548 95.138 634.957 96.298 620.75 98.751ZM461.741 120.562C447.806 123.939 437.778 133.021 432.808 146.767C430.047 154.401 429.774 171.859 432.285 180.145C437.174 196.282 450.215 206.693 468.406 208.981C488.038 211.45 507.196 201.736 514.603 185.556C520.305 173.102 520.038 154.152 513.983 141.464C505.732 124.176 483.513 115.286 461.741 120.562ZM576.426 119.609C575.917 119.734 573.886 120.105 571.913 120.433C567.905 121.099 560.766 126.696 557.874 131.439L556.007 134.5L556.004 127.75L556 121H545.5H535V164.5V208H545.427H555.855L556.177 181.169L556.5 154.337L559.512 149.419C563.832 142.362 569.213 139.772 578.653 140.203L585.806 140.529L587.272 131.015C588.079 125.782 588.614 121.354 588.462 121.176C588.065 120.711 577.529 119.339 576.426 119.609ZM838.23 120.55C818.676 125.815 807.961 141.144 807.86 164C807.795 178.871 810.641 187.654 818.465 196.722C823.475 202.529 834.24 207.691 844.145 209.038C861.846 211.444 876.305 205.113 884.086 191.547C885.678 188.771 886.985 186.168 886.991 185.761C886.996 185.355 883.471 183.248 879.158 181.08L871.316 177.137L867.908 182.244C863.601 188.698 859.332 191 851.667 191C844.487 191 840.018 189.007 835.585 183.829C831.053 178.533 829.662 172.955 830.179 162.145C830.698 151.287 833.483 145.013 839.734 140.619C844.52 137.255 851.851 136.136 857.303 137.935C860.434 138.968 866.689 144.755 869.5 149.219C870.384 150.622 871.461 150.386 878.75 147.189C883.287 145.199 887 143.044 887 142.4C887 141.755 885.199 138.531 882.997 135.234C878.333 128.248 871.01 122.86 863.068 120.568C856.429 118.651 845.312 118.644 838.23 120.55ZM929.5 120.326C922.087 122.226 912.321 127.811 908.335 132.43C900.257 141.789 897.51 151.334 898.184 167.694C898.579 177.285 899.013 179.43 901.731 185.24C905.649 193.611 911.4 199.873 918.748 203.768C926.399 207.823 931.97 209.2 940.727 209.2C963.303 209.2 979.603 197.025 984.032 176.855C985.869 168.49 984.839 151.926 982.053 145C975.756 129.35 961.758 120.046 943.5 119.375C938.301 119.184 932.388 119.586 929.5 120.326ZM1033.91 120.554C1031.38 121.331 1027.22 123.813 1024.66 126.069L1020 130.17V125.585V121H1009.49H998.979L999.239 164.25L999.5 207.5L1010.25 207.784L1021 208.068V177.967V147.867L1023.5 144.583C1027.21 139.72 1032.57 137.656 1040.08 138.2C1045.69 138.605 1046.61 139.001 1049.65 142.31L1053 145.971V161.826C1053 170.547 1053.3 184.504 1053.66 192.841L1054.31 208H1064.66H1075V177.703V147.406L1078.75 143.762C1083.18 139.458 1086.61 137.999 1092.31 138.002C1097.91 138.004 1102.93 140.73 1105.17 144.984C1106.83 148.138 1107 151.295 1107 178.234V208H1117.85H1128.7L1128.28 176.25C1127.96 152.891 1127.47 143.13 1126.42 139.316C1124.33 131.752 1119.61 126.055 1112.5 122.5C1107.09 119.796 1105.56 119.501 1097 119.508C1085.74 119.517 1080.52 121.546 1074.25 128.342L1070.34 132.585L1067.92 129.392C1061.11 120.408 1046.61 116.641 1033.91 120.554ZM747.927 121.977C744.615 123.728 739.262 129.03 736.213 133.579C735.122 135.206 734.998 134.391 735.404 128.25L735.884 121H724.942H714V164.5V208H725H736L736.022 181.75C736.041 158.447 736.25 155.046 737.88 151.459C741.511 143.465 749.048 139.474 759.133 140.203C765.874 140.691 765.179 141.673 766.999 129.081C767.848 123.203 767.804 121.492 766.785 120.846C764.247 119.236 751.688 119.989 747.927 121.977ZM671.755 164.25L672.011 207.5H682.505C688.277 207.5 693 207.163 693 206.75C693 206.337 693 186.875 693 163.5V121H682.25L671.5 120.999L671.755 164.25ZM469.5 137.924C459.436 140.411 454.494 146.75 452.481 159.757C451.512 166.016 453.683 177.109 456.826 181.964C462.832 191.238 477.9 193.966 487.159 187.454C497.959 179.858 500.486 157.873 491.918 146.046C487.264 139.621 477.277 136.003 469.5 137.924ZM934.759 138.373C928.939 140.528 926.302 142.629 923.571 147.288C919.313 154.554 918.456 169.481 921.805 178.056C927.248 191.995 946.667 195.434 957.211 184.327C961.174 180.153 963.169 173.663 963.173 164.935C963.18 151.977 959.887 144.411 952.461 140.316C947.236 137.434 939.569 136.593 934.759 138.373ZM775.304 183.9C770.84 186.7 768.667 190.448 768.667 195.345C768.667 200.867 770.712 204.891 775 207.801C781.218 212.021 790.177 209.362 793.527 202.302C795.48 198.186 795.075 192.289 792.576 188.476C788.753 182.641 780.708 180.51 775.304 183.9ZM618 255.456V264.051L614.879 262.437C609.113 259.456 602.668 262.448 600.067 269.315C597.634 275.734 599.651 284.183 604.311 287.1C607.988 289.401 613.137 289.091 616.124 286.388C617.852 284.824 618 284.82 618 286.345C618 287.446 618.841 288 620.513 288H623.026L622.743 267.75C622.462 247.665 622.441 247.497 620.23 247.18C618.072 246.871 618 247.137 618 255.456ZM338.247 250.657C334.446 251.472 329.3 257.174 327.988 262.024C326.45 267.711 327.265 277.06 329.655 281.14C333.888 288.368 342.12 290.81 350.202 287.235C353.772 285.656 355.174 284.272 356.976 280.549C358.925 276.524 359.183 274.719 358.787 267.884C358.301 259.494 356.956 256.534 351.938 252.818C349.417 250.95 342.194 249.81 338.247 250.657ZM469.362 251.5C468.569 253.564 469.644 256 471.346 256C472.121 256 473.315 255.325 474 254.5C474.993 253.303 474.993 252.697 474 251.5C473.315 250.675 472.121 250 471.346 250C470.571 250 469.678 250.675 469.362 251.5ZM791.362 251.5C790.569 253.564 791.644 256 793.346 256C795.393 256 797.135 253.514 796.41 251.627C795.626 249.584 792.131 249.496 791.362 251.5ZM340.284 254.727C334.544 255.772 330.829 265.835 332.855 274.85C334.601 282.621 339.981 286.151 346.699 283.934C354.901 281.227 356.699 263.141 349.388 256.884C347.218 255.027 343.489 254.143 340.284 254.727ZM772 258C772 261.333 771.667 262 770 262C768.63 262 768 262.667 768 264.117C768 265.741 768.465 266.112 770 265.71C771.889 265.216 772 265.68 772 274.029C772 285.428 772.862 287.696 777.531 288.572C781.889 289.389 786.219 287.735 785.389 285.571C785.004 284.567 783.624 284.149 781.159 284.29L777.5 284.5L777.216 274.947L776.932 265.394L780.466 265.806C783.525 266.163 784 265.935 784 264.109C784 262.365 783.394 262 780.5 262C777.083 262 777 261.905 777 258C777 254.4 776.75 254 774.5 254C772.25 254 772 254.4 772 258ZM372.455 263.455C370.19 265.72 370 265.758 370 263.955C370 262.513 369.313 262 367.383 262C365.158 262 364.857 262.336 365.37 264.25C365.701 265.487 365.979 271.337 365.986 277.25C365.999 287.329 366.125 288 368 288C369.823 288 370 287.333 370 280.45C370 271.348 371.76 267.198 375.979 266.354C380.484 265.453 381.246 261 376.896 261C375.803 261 373.805 262.105 372.455 263.455ZM388.763 262.565C385.102 264.552 383 268.905 383 274.5C383 279.657 385.055 284.424 387.945 285.97C390.979 287.594 396.508 287.175 399.115 285.124L401.5 283.247L401.147 287.874C400.953 290.418 400.096 293.288 399.242 294.25C396.924 296.863 391.678 296.493 388.855 293.517C386.326 290.851 383 290.167 383 292.313C383 293.035 384.329 294.899 385.953 296.455C390.178 300.502 397.529 301.172 401.369 297.86C405.018 294.712 405.948 290.049 405.976 274.75C405.999 262.659 405.897 262 404 262C402.898 262 402 262.667 402 263.485C402 264.697 401.402 264.606 398.75 262.989C394.911 260.648 392.485 260.545 388.763 262.565ZM415.966 263.682C413 266.177 412.902 266.455 414.557 267.665C416.073 268.774 416.541 268.673 417.725 266.983C419.279 264.764 423.915 264.315 425.8 266.2C426.46 266.86 427 268.597 427 270.061C427 272.526 426.615 272.766 421.75 273.33C412.951 274.351 409.148 281.239 414.455 286.545C417.215 289.306 421.151 289.678 425 287.542C427.146 286.351 427.727 286.359 429.105 287.601C431.362 289.635 434.285 288.402 432.982 285.966C432.442 284.957 432 280.937 432 277.034C432 269.184 430.231 263.729 427.15 262.08C423.67 260.218 419.347 260.837 415.966 263.682ZM447.25 262.989C444.598 264.606 444 264.697 444 263.485C444 262.667 443.102 262 442 262C440.103 262 440 262.667 440 275C440 287.814 440.032 288 442.25 288.002C444.44 288.005 444.491 287.766 444.18 279.027C443.877 270.552 444.001 269.909 446.384 267.525C449.357 264.553 453.027 264.267 455.345 266.829C456.645 268.265 457 270.733 457 278.329V288H459.611H462.221L461.841 276.897C461.475 266.201 461.359 265.705 458.675 263.397C455.288 260.484 451.576 260.351 447.25 262.989ZM483.389 263.342C478.173 267.828 480.618 275.042 487.876 276.582C492.735 277.613 495 278.947 495 280.779C495 285.418 487.509 286.733 484.302 282.657C483.026 281.035 481.879 280.516 480.579 280.972C478.853 281.578 478.951 281.913 481.768 285.066C484.514 288.139 485.379 288.5 490.005 288.5C494.428 288.5 495.521 288.095 497.587 285.694C500.326 282.51 500.745 277.863 498.464 275.97C497.619 275.268 494.606 273.938 491.77 273.013C488.933 272.089 486.163 270.62 485.614 269.75C483.123 265.801 491.354 263.052 494.128 266.906C495.099 268.255 496.079 268.593 497.482 268.061C499.347 267.355 499.277 267.124 496.309 264.155C492.342 260.188 487.416 259.878 483.389 263.342ZM510.42 262.827C506.22 265.468 504.665 269.698 505.197 277.042C505.551 281.945 506.146 283.6 508.34 285.794C510.619 288.074 511.905 288.5 516.5 288.5C521.056 288.5 522.387 288.067 524.584 285.871C529.629 280.825 529.685 269.23 524.687 264.233C521.318 260.864 514.596 260.201 510.42 262.827ZM544 261.709C543.175 262.013 541.712 262.947 540.75 263.785C539.174 265.158 539 265.145 539 263.655C539 262.606 538.176 261.999 536.75 261.998C534.516 261.997 534.502 262.091 534.806 274.998C535.09 287.105 535.245 288 537.056 288C538.844 288 539 287.243 539 278.573C539 269.579 539.121 269.05 541.635 267.073C543.084 265.933 545.309 265 546.578 265C550.63 265 552 268.467 552 278.723C552 287.952 552.013 288 554.5 288C556.965 288 557 287.885 556.994 279.75C556.988 269.862 555.686 264.594 552.739 262.529C550.565 261.007 546.857 260.659 544 261.709ZM565.635 263.073C563.758 264.549 563 266.076 563 268.381C563 272.953 564.706 274.74 570.988 276.747C574.6 277.9 576.594 279.115 576.821 280.298C577.735 285.073 570.543 286.746 566.702 282.652C564.468 280.27 562 280.143 562 282.409C562 283.092 563.161 284.742 564.581 286.076C566.602 287.975 568.245 288.5 572.167 288.5C576.412 288.5 577.54 288.074 579.587 285.694C582.422 282.398 582.719 277.946 580.25 275.762C579.288 274.911 576.298 273.602 573.607 272.854C567.976 271.288 565.915 269.012 567.93 266.584C569.833 264.291 574.594 264.582 576.356 267.098C577.492 268.72 578.228 268.972 579.597 268.206C581.211 267.302 581.092 266.939 578.261 264.107C574.498 260.344 569.613 259.944 565.635 263.073ZM636.388 261.929C628.58 265.273 626.682 278.255 632.972 285.294C635.473 288.094 636.47 288.5 640.845 288.5C647.675 288.5 654.85 283.308 650.387 281.595C649.344 281.195 647.856 281.726 646.53 282.972C643.411 285.902 638.637 285.625 636.073 282.365C634.933 280.916 634 278.891 634 277.865C634 276.181 634.887 276 643.13 276H652.26L651.74 271.382C651.078 265.509 647.79 262.008 642.403 261.438C640.256 261.21 637.55 261.431 636.388 261.929ZM660.514 263.234C658.486 264.979 657.667 266.606 657.667 268.889C657.667 273.072 659.86 275.152 666.263 277.044C669.66 278.048 671.608 279.202 671.827 280.342C672.739 285.073 664.666 286.901 661.323 282.721C660.32 281.468 658.712 280.601 657.75 280.794C655.365 281.274 655.547 282.275 658.573 285.3C663.282 290.01 671.279 290.004 674.988 285.288C679.152 279.995 677.056 275.715 669.017 273.094C663.279 271.223 661.286 269.304 662.309 266.636C663.217 264.27 669.366 264.458 671.128 266.906C672.063 268.205 673.095 268.585 674.37 268.101C676.139 267.428 676.112 267.242 673.868 264.633C670.396 260.597 664.32 259.96 660.514 263.234ZM699.315 262.007C694.728 263.855 693.589 270.332 697.25 273.754C698.487 274.911 701.607 276.385 704.182 277.03C709.226 278.294 710.593 280.023 708.961 283.072C707.415 285.961 701.692 285.658 698.79 282.534C695.947 279.472 693.1 280.451 694.926 283.862C697.389 288.465 704.681 290.251 709.928 287.537C713.078 285.908 714 284.199 714 279.99C714 276.16 712.046 274.45 706.016 273.004C700.583 271.7 698.559 269.54 700.134 266.724C701.488 264.306 706.529 264.49 708.303 267.022C709.911 269.318 713.483 268.702 712.557 266.289C712.251 265.49 712 264.66 712 264.444C712 264.228 710.672 263.365 709.05 262.526C705.788 260.839 702.632 260.671 699.315 262.007ZM725.5 262.42C721.679 264.129 720.032 266.932 719.321 272.939C718.205 282.357 722.945 288.987 730.8 288.996C738.286 289.005 743 283.597 743 275C743 264.033 734.904 258.214 725.5 262.42ZM755.897 263.74C752.766 266.375 752.664 266.394 753.227 264.24C753.714 262.378 753.406 262 751.406 262H749V275V288H751.5C753.967 288 754 287.891 754 279.635C754 272.686 754.351 270.824 756.073 268.635C757.243 267.146 759.151 266 760.456 266C761.903 266 762.957 265.274 763.275 264.058C764.325 260.042 760.489 259.876 755.897 263.74ZM807.898 263.285C801.648 267.488 800.832 280.675 806.493 285.993C810.103 289.385 816.635 289.768 820.923 286.838C824.971 284.073 825.715 282.488 823.387 281.595C822.344 281.195 820.856 281.726 819.53 282.972C815.168 287.07 809.008 284.913 807.47 278.75L806.783 276H815.892H825V271.9C825 268.571 824.361 267.161 821.6 264.4C817.455 260.255 812.949 259.888 807.898 263.285ZM836 261.709C832.966 262.825 831 265.385 831 268.221C831 272.888 832.685 274.829 838.146 276.451C845.846 278.737 847.397 280.46 844.429 283.429C842.081 285.776 837.272 285.392 834.702 282.652C832.468 280.27 830 280.143 830 282.409C830 283.092 831.161 284.742 832.581 286.076C834.602 287.975 836.245 288.5 840.167 288.5C844.412 288.5 845.54 288.074 847.587 285.694C850.422 282.398 850.719 277.946 848.25 275.762C847.287 274.911 844.298 273.602 841.607 272.854C835.976 271.288 833.915 269.012 835.93 266.584C837.833 264.291 842.594 264.582 844.356 267.098C845.492 268.72 846.228 268.972 847.597 268.206C849.211 267.302 849.092 266.939 846.261 264.107C843.242 261.089 839.847 260.295 836 261.709ZM873.314 262.894C869.676 265.176 868.515 267.045 867.657 272C866.813 276.869 868.403 282.858 871.313 285.767C874.938 289.393 881.481 289.873 885.923 286.838C889.971 284.073 890.715 282.488 888.387 281.595C887.344 281.195 885.856 281.726 884.53 282.972C881.411 285.902 876.637 285.625 874.073 282.365C872.933 280.916 872 278.891 872 277.865C872 276.183 872.884 276 881 276H890V272.016C890 263.567 880.51 258.379 873.314 262.894ZM903.727 263C900.692 265.388 899.862 265.522 900.638 263.5C901.059 262.403 900.513 262 898.607 262H896V275V288H898.5C900.99 288 901 287.962 901 278.573C901 269.579 901.121 269.05 903.635 267.073C906.727 264.641 908.882 264.463 911.559 266.419C913.258 267.66 913.5 269.093 913.5 277.915C913.5 287.698 913.566 287.993 915.75 287.996C917.931 288 918 287.7 917.986 278.25C917.969 266.202 917.48 264.299 913.923 262.46C910.046 260.455 906.739 260.631 903.727 263ZM945.256 262.029C938.9 264.584 936.645 278.048 941.589 283.923C943.721 286.457 944.917 287 948.366 287C950.67 287 953.555 286.299 954.777 285.443C956.973 283.905 957 283.939 957 288.288C957 291.283 956.415 293.219 955.171 294.345C952.436 296.821 947.754 296.432 945 293.5C942.494 290.832 939 290.14 939 292.311C939 294.164 942.735 297.949 945.661 299.061C948.934 300.305 953.357 300.25 956.257 298.929C960.864 296.829 961.471 294.525 961.835 277.75C962.168 262.337 962.131 262 960.088 262C958.908 262 958 262.646 958 263.485C958 264.697 957.402 264.606 954.75 262.989C951.25 260.855 948.794 260.606 945.256 262.029ZM976.452 263.646C974.1 266.184 974 266.205 974 264.146C974 262.667 973.379 262 972 262C970.103 262 970 262.667 970 275C970 287.875 970.022 288 972.286 288C974.488 288 974.57 287.694 974.536 279.586C974.504 272.033 974.748 270.908 976.924 268.586C978.258 267.164 980.395 266 981.674 266C983.488 266 984 265.45 984 263.5C984 260.011 979.744 260.094 976.452 263.646ZM993.381 262.91C989.823 265.079 988 269.373 988 275.584C988 281.573 989.421 284.676 993.225 286.996C999.825 291.02 1007.73 288.63 1010.47 281.781C1012.44 276.863 1012.4 273.051 1010.35 267.904C1007.73 261.363 999.762 259.018 993.381 262.91ZM1054.25 262.989C1051.6 264.606 1051 264.697 1051 263.485C1051 262.667 1050.1 262 1049 262C1047.07 262 1047 262.667 1047 280.786C1047 298.905 1047.07 299.571 1049 299.571C1050.82 299.571 1051 298.905 1051 292.213V284.855L1053.64 286.927C1056.95 289.534 1060.58 289.556 1064.78 286.996C1068.77 284.562 1070 281.574 1070 274.339C1070 263.183 1062.64 257.876 1054.25 262.989ZM1081.31 262.894C1077.01 265.597 1075.67 268.468 1075.67 275C1075.67 278.03 1076.22 281.543 1076.9 282.808C1078.58 285.947 1083.84 288.992 1087.6 288.996C1090.71 289 1097.02 285.49 1097.71 283.373C1098.43 281.189 1094.73 280.902 1092.53 282.972C1089.41 285.902 1084.64 285.625 1082.07 282.365C1080.93 280.916 1080 278.891 1080 277.865C1080 276.186 1080.88 276 1088.83 276C1093.69 276 1097.9 275.763 1098.19 275.473C1099.4 274.265 1097.04 266.59 1094.77 264.311C1091.36 260.909 1085.47 260.287 1081.31 262.894ZM469.221 274.99C469.494 287.709 469.547 287.98 471.75 287.99C473.968 288 474 287.818 474 275V262H471.471H468.942L469.221 274.99ZM791.375 265.125C791.719 266.844 792 272.694 792 278.125C792 287.333 792.135 288 794 288C795.897 288 796 287.333 796 275V262H793.375C790.968 262 790.802 262.26 791.375 265.125ZM1018 272.777C1018 285.13 1019 287.533 1024.55 288.574C1028.08 289.237 1034 287.549 1034 285.879C1034 285.395 1034.5 285 1035.11 285C1035.72 285 1035.95 285.675 1035.64 286.5C1035.22 287.59 1035.76 288 1037.59 288H1040.12L1039.91 275C1039.7 262.086 1039.68 262 1037.35 262C1035.05 262 1035 262.202 1035 271.427C1035 280.421 1034.88 280.95 1032.36 282.927C1029.03 285.552 1026.55 285.553 1023.93 282.933C1022.08 281.083 1021.9 279.876 1022.18 271.431C1022.49 262.218 1022.45 261.996 1020.25 261.998C1018.06 262 1018 262.268 1018 272.777ZM389.405 267.105C388.09 268.558 387.5 270.693 387.5 274C387.5 281.438 392.259 285.072 397.986 282.008C400.326 280.755 402.386 274.672 401.57 271.421C400.063 265.418 393.151 262.966 389.405 267.105ZM511.439 267.068C508.775 270.011 508.753 279.959 511.405 282.893C514.23 286.018 519.293 285.712 522.026 282.25C523.798 280.005 524.118 278.539 523.767 274.265C523.508 271.106 522.615 268.232 521.514 267.015C519.087 264.334 513.889 264.361 511.439 267.068ZM606.073 267.635C603.032 271.5 603.166 279.867 606.314 282.826C611.885 288.059 618 283.651 618 274.404C618 270.213 617.534 268.643 615.811 267.039C612.723 264.162 608.606 264.414 606.073 267.635ZM636.245 266.25C635.695 266.938 634.934 268.513 634.555 269.75C633.885 271.936 634.066 272 640.933 272C648.535 272 649.316 271.324 646.443 267.223C644.68 264.705 637.991 264.067 636.245 266.25ZM726 267C724.444 268.556 724 270.333 724 275C724 281.992 726.106 285 731 285C735.894 285 738 281.992 738 275C738 268.008 735.894 265 731 265C729.333 265 727.111 265.889 726 267ZM810.4 265.765C809.31 266.493 807 270.345 807 271.434C807 271.745 810.15 272 814 272C821.532 272 822.311 271.316 819.443 267.223C817.874 264.983 812.797 264.165 810.4 265.765ZM875.4 265.765C874.31 266.493 872 270.345 872 271.434C872 271.745 875.15 272 879 272C886.532 272 887.311 271.316 884.443 267.223C882.874 264.983 877.797 264.165 875.4 265.765ZM945.667 266.816C943.644 269.051 942.556 274.093 943.384 277.393C944.955 283.653 951.172 284.961 955.411 279.923C958.204 276.604 958.684 273.153 956.837 269.684C954.284 264.891 948.705 263.458 945.667 266.816ZM994.344 267.598C992.05 271.098 992.013 278.84 994.273 282.292C995.6 284.318 996.858 284.996 999.273 284.985C1003.06 284.967 1004.29 284.281 1005.85 281.316C1008.17 276.919 1006.87 267.946 1003.6 265.765C1003 265.361 1001.05 265.024 999.273 265.015C996.892 265.004 995.6 265.681 994.344 267.598ZM1054.31 267.413C1051.85 269.53 1051.5 270.524 1051.5 275.502C1051.5 280.259 1051.88 281.486 1053.86 283.088C1056.95 285.589 1061.22 285.52 1063.56 282.932C1066.23 279.989 1066.25 270.041 1063.59 267.107C1061.09 264.331 1057.76 264.441 1054.31 267.413ZM1083.4 265.765C1082.31 266.493 1080 270.345 1080 271.434C1080 271.745 1083.15 272 1087 272C1094.53 272 1095.31 271.316 1092.44 267.223C1090.87 264.983 1085.8 264.165 1083.4 265.765ZM419.694 277.181C417.318 278.047 416.935 278.685 417.194 281.352C417.445 283.935 417.985 284.556 420.201 284.812C424.593 285.319 427 283.426 427 279.465C427 276.515 426.666 276.012 424.75 276.079C423.513 276.122 421.237 276.618 419.694 277.181Z" fill="white"/>
</svg>
