<svg width="278" height="347" viewBox="0 0 278 347" fill="none" xmlns="http://www.w3.org/2000/svg">
<path fill-rule="evenodd" clip-rule="evenodd" d="M118.818 0.667087C73.5799 7.67909 35.0109 35.3491 15.0339 75.1231C4.59091 95.9141 0.0749023 114.537 0.000902312 137.123C-0.163098 186.863 22.0089 229.155 82.8029 295.065C100.746 314.517 126.526 340.729 130.718 343.783C135.114 346.984 140.649 347.539 145.118 345.225C146.603 344.456 155.923 335.569 165.828 325.475C240.803 249.078 268.841 206.955 275.768 160.306C283.809 106.152 261.186 53.8861 216.546 23.4851C202.174 13.6971 184.073 6.00208 166.318 2.13208C157.431 0.195083 127.763 -0.719913 118.818 0.667087ZM120.818 21.7321C77.5399 27.9681 39.4239 60.2991 26.0419 102.123C21.2229 117.185 20.8179 120.211 20.8179 141.123C20.8179 161.292 21.6109 167.565 25.6219 179.102L27.0049 183.082L28.6939 177.997C31.0099 171.024 35.2339 164.65 40.0839 160.809C49.1369 153.639 63.3899 149.755 75.7809 151.082C81.4559 151.69 82.3669 152.049 81.8129 153.46C76.1799 167.838 75.9339 169.342 75.5209 191.873L75.1219 213.623H79.7199H84.3179V193.833C84.3179 179.289 84.7239 172.485 85.8489 168.165C92.2159 143.723 114.234 128.533 141.318 129.9C164.127 131.051 181.406 143.042 189.419 163.283C191.539 168.636 191.763 170.977 192.108 191.373L192.484 213.623H197.032H201.579L201.032 191.873C200.486 170.134 199.802 165.342 195.943 156.219C195.035 154.073 194.561 152.048 194.889 151.719C195.218 151.391 200.736 151.155 207.152 151.194C216.885 151.254 219.812 151.652 224.818 153.601C232.321 156.521 236.954 159.454 240.87 163.764C245.741 169.125 246.448 170.287 248.817 176.83L251.06 183.023L252.642 177.573C258.913 155.975 258.927 128.302 252.679 106.74C237.946 55.9001 190.528 20.1991 138.458 20.7451C132.056 20.8121 124.118 21.2561 120.818 21.7321ZM130.399 53.1561C123.468 55.0901 119.593 57.5171 114.35 63.2041C107.631 70.4941 105.82 75.4651 105.819 86.6231C105.818 94.8391 106.18 96.8961 108.499 101.843C120.465 127.375 155.944 127.411 168.5 101.904C171.316 96.1851 171.7 94.4191 171.684 87.2621C171.67 81.2741 171.082 77.6301 169.458 73.4761C163.379 57.9221 145.904 48.8311 130.399 53.1561ZM57.9329 95.0951C53.0349 96.8411 46.6399 102.916 44.2209 108.123C41.7269 113.49 41.7249 123.751 44.2179 129.123C48.5089 138.37 56.8319 143.579 67.3179 143.579C82.0299 143.579 92.2449 133.463 92.2959 118.841C92.3219 111.489 90.8379 107.423 86.1999 102.142C79.5629 94.5821 67.6829 91.6201 57.9329 95.0951ZM198.818 95.5261C179.842 104.344 179.038 131.826 197.486 141.02C204.279 144.405 213.626 144.62 219.991 141.539C225.38 138.931 231.598 131.969 233.142 126.816C238.247 109.777 226.426 93.6671 208.818 93.6671C205.071 93.6671 201.316 94.3651 198.818 95.5261Z" fill="white"/>
</svg>
