<svg xmlns="http://www.w3.org/2000/svg" width="1536" height="1024" viewBox="0 0 1536 1024" version="1.1">
	<path d="M 354.500 309.044 C 309.262 316.056, 270.693 343.726, 250.716 383.500 C 240.273 404.291, 235.757 422.914, 235.683 445.500 C 235.519 495.240, 257.691 537.532, 318.485 603.442 C 336.428 622.894, 362.208 649.106, 366.400 652.160 C 370.796 655.361, 376.331 655.916, 380.800 653.602 C 382.285 652.833, 391.605 643.946, 401.510 633.852 C 476.485 557.455, 504.523 515.332, 511.450 468.683 C 519.491 414.529, 496.868 362.263, 452.228 331.862 C 437.856 322.074, 419.755 314.379, 402 310.509 C 393.113 308.572, 363.445 307.657, 354.500 309.044 M 356.500 330.109 C 313.222 336.345, 275.106 368.676, 261.724 410.500 C 256.905 425.562, 256.500 428.588, 256.500 449.500 C 256.500 469.669, 257.293 475.942, 261.304 487.479 L 262.687 491.459 264.376 486.374 C 266.692 479.401, 270.916 473.027, 275.766 469.186 C 284.819 462.016, 299.072 458.132, 311.463 459.459 C 317.138 460.067, 318.049 460.426, 317.495 461.837 C 311.862 476.215, 311.616 477.719, 311.203 500.250 L 310.804 522 315.402 522 L 320 522 320 502.210 C 320 487.666, 320.406 480.862, 321.531 476.542 C 327.898 452.100, 349.916 436.910, 377 438.277 C 399.809 439.428, 417.088 451.419, 425.101 471.660 C 427.221 477.013, 427.445 479.354, 427.790 499.750 L 428.166 522 432.714 522 L 437.261 522 436.714 500.250 C 436.168 478.511, 435.484 473.719, 431.625 464.596 C 430.717 462.450, 430.243 460.425, 430.571 460.096 C 430.900 459.768, 436.418 459.532, 442.834 459.571 C 452.567 459.631, 455.494 460.029, 460.500 461.978 C 468.003 464.898, 472.636 467.831, 476.552 472.141 C 481.423 477.502, 482.130 478.664, 484.499 485.207 L 486.742 491.400 488.324 485.950 C 494.595 464.352, 494.609 436.679, 488.361 415.117 C 473.628 364.277, 426.210 328.576, 374.140 329.122 C 367.738 329.189, 359.800 329.633, 356.500 330.109 M 366.081 361.533 C 359.150 363.467, 355.275 365.894, 350.032 371.581 C 343.313 378.871, 341.502 383.842, 341.501 395 C 341.500 403.216, 341.862 405.273, 344.181 410.220 C 356.147 435.752, 391.626 435.788, 404.182 410.281 C 406.998 404.562, 407.382 402.796, 407.366 395.639 C 407.352 389.651, 406.764 386.007, 405.140 381.853 C 399.061 366.299, 381.586 357.208, 366.081 361.533 M 910.198 392.617 C 901.562 397.019, 902.002 411.847, 910.906 416.451 C 917.028 419.617, 924.960 417.762, 928.518 412.332 C 932.099 406.866, 929.990 397.005, 924.465 393.385 C 920.789 390.977, 914.120 390.618, 910.198 392.617 M 596 393.362 C 575.952 397.717, 563.732 414.362, 567.121 432.697 C 569.978 448.151, 580.245 456.303, 606.500 463.961 C 624.010 469.069, 629.988 473.734, 629.996 482.300 C 630.015 501.535, 598.108 504.466, 586.097 486.332 C 584.451 483.848, 582.940 481.321, 582.738 480.715 C 582.500 479.999, 578.801 480.746, 572.135 482.860 C 560.599 486.517, 560.932 485.871, 565.692 495.340 C 573.049 509.975, 587.193 517.325, 608 517.325 C 624.246 517.325, 635.910 513.161, 643.879 504.515 C 649.921 497.961, 652.263 492.142, 652.796 482.367 C 653.868 462.671, 644.018 452.244, 617 444.471 C 595.287 438.225, 590.118 434.618, 590.035 425.654 C 589.953 416.756, 597.443 411.404, 608.831 412.222 C 615.684 412.714, 622.131 415.250, 625.153 418.644 C 626.063 419.665, 627.796 422.413, 629.004 424.750 C 630.213 427.087, 631.405 429, 631.654 429 C 631.902 429, 636.149 427.790, 641.091 426.310 L 650.076 423.621 649.463 420.560 C 647.626 411.387, 639.971 401.577, 631.131 397.067 C 621.946 392.381, 607.520 390.860, 596 393.362 M 293.615 403.472 C 288.717 405.218, 282.322 411.293, 279.903 416.500 C 277.409 421.867, 277.407 432.128, 279.900 437.500 C 284.191 446.747, 292.514 451.956, 303 451.956 C 317.712 451.956, 327.927 441.840, 327.978 427.218 C 328.004 419.866, 326.520 415.800, 321.882 410.519 C 315.245 402.959, 303.365 399.997, 293.615 403.472 M 434.500 403.903 C 415.524 412.721, 414.720 440.203, 433.168 449.397 C 439.961 452.782, 449.308 452.997, 455.673 449.916 C 461.062 447.308, 467.280 440.346, 468.824 435.193 C 473.929 418.154, 462.108 402.044, 444.500 402.044 C 440.753 402.044, 436.998 402.742, 434.500 403.903 M 855.750 406.751 L 847 408.261 847 418.631 L 847 429 840 429 L 833 429 832.998 438.250 L 832.995 447.500 839.911 447.171 L 846.827 446.843 847.257 473.171 C 847.738 502.569, 848.247 505.482, 853.882 511.118 C 858.194 515.430, 863.033 516.987, 872.145 516.994 C 879.558 517.001, 891.790 513.710, 892.646 511.479 C 892.944 510.705, 891.907 506.884, 890.343 502.989 C 887.710 496.429, 887.315 495.949, 885 496.495 C 877.385 498.288, 873.474 498.204, 870.989 496.194 L 868.500 494.180 868.184 470.590 L 867.867 447 878.934 447 L 890 447 890 438 L 890 429 878.941 429 L 867.882 429 868.191 416.998 C 868.548 403.138, 869.957 404.298, 855.750 406.751 M 696.741 428.562 C 682.806 431.939, 672.778 441.021, 667.808 454.767 C 665.047 462.401, 664.774 479.859, 667.285 488.145 C 672.174 504.282, 685.215 514.693, 703.406 516.981 C 723.038 519.450, 742.196 509.736, 749.603 493.556 C 755.305 481.102, 755.038 462.152, 748.983 449.464 C 740.732 432.176, 718.513 423.286, 696.741 428.562 M 811.426 427.609 C 810.917 427.734, 808.886 428.105, 806.913 428.433 C 802.905 429.099, 795.766 434.696, 792.874 439.439 L 791.007 442.500 791.004 435.750 L 791 429 780.500 429 L 770 429 770 472.500 L 770 516 780.427 516 L 790.855 516 791.177 489.169 L 791.500 462.337 794.512 457.419 C 798.832 450.362, 804.213 447.772, 813.653 448.203 L 820.806 448.529 822.272 439.015 C 823.079 433.782, 823.614 429.354, 823.462 429.176 C 823.065 428.711, 812.529 427.339, 811.426 427.609 M 1073.230 428.550 C 1053.676 433.815, 1042.961 449.144, 1042.860 472 C 1042.795 486.871, 1045.641 495.654, 1053.465 504.722 C 1058.475 510.529, 1069.240 515.691, 1079.145 517.038 C 1096.846 519.444, 1111.305 513.113, 1119.086 499.547 C 1120.678 496.771, 1121.985 494.168, 1121.991 493.761 C 1121.996 493.355, 1118.471 491.248, 1114.158 489.080 L 1106.316 485.137 1102.908 490.244 C 1098.601 496.698, 1094.332 499, 1086.667 499 C 1079.487 499, 1075.018 497.007, 1070.585 491.829 C 1066.053 486.533, 1064.662 480.955, 1065.179 470.145 C 1065.698 459.287, 1068.483 453.013, 1074.734 448.619 C 1079.520 445.255, 1086.851 444.136, 1092.303 445.935 C 1095.434 446.968, 1101.689 452.755, 1104.500 457.219 C 1105.384 458.622, 1106.461 458.386, 1113.750 455.189 C 1118.287 453.199, 1122 451.044, 1122 450.400 C 1122 449.755, 1120.199 446.531, 1117.997 443.234 C 1113.333 436.248, 1106.010 430.860, 1098.068 428.568 C 1091.429 426.651, 1080.312 426.644, 1073.230 428.550 M 1164.500 428.326 C 1157.087 430.226, 1147.321 435.811, 1143.335 440.430 C 1135.257 449.789, 1132.510 459.334, 1133.184 475.694 C 1133.579 485.285, 1134.013 487.430, 1136.731 493.240 C 1140.649 501.611, 1146.400 507.873, 1153.748 511.768 C 1161.399 515.823, 1166.970 517.200, 1175.727 517.200 C 1198.303 517.200, 1214.603 505.025, 1219.032 484.855 C 1220.869 476.490, 1219.839 459.926, 1217.053 453 C 1210.756 437.350, 1196.758 428.046, 1178.500 427.375 C 1173.301 427.184, 1167.388 427.586, 1164.500 428.326 M 1268.909 428.554 C 1266.384 429.331, 1262.222 431.813, 1259.659 434.069 L 1255 438.170 1255 433.585 L 1255 429 1244.489 429 L 1233.979 429 1234.239 472.250 L 1234.500 515.500 1245.250 515.784 L 1256 516.068 1256 485.967 L 1256 455.867 1258.504 452.583 C 1262.213 447.720, 1267.574 445.656, 1275.084 446.200 C 1280.692 446.605, 1281.613 447.001, 1284.645 450.310 L 1288 453.971 1288 469.826 C 1288 478.547, 1288.295 492.504, 1288.656 500.841 L 1289.312 516 1299.656 516 L 1310 516 1310 485.703 L 1310 455.406 1313.750 451.762 C 1318.181 447.458, 1321.615 445.999, 1327.315 446.002 C 1332.907 446.004, 1337.925 448.730, 1340.165 452.984 C 1341.826 456.138, 1342 459.295, 1342 486.234 L 1342 516 1352.851 516 L 1363.703 516 1363.275 484.250 C 1362.961 460.891, 1362.470 451.130, 1361.416 447.316 C 1359.325 439.752, 1354.611 434.055, 1347.500 430.500 C 1342.091 427.796, 1340.564 427.501, 1332 427.508 C 1320.743 427.517, 1315.516 429.546, 1309.252 436.342 L 1305.341 440.585 1302.921 437.392 C 1296.110 428.408, 1281.611 424.641, 1268.909 428.554 M 982.927 429.977 C 979.615 431.728, 974.262 437.030, 971.213 441.579 C 970.122 443.206, 969.998 442.391, 970.404 436.250 L 970.884 429 959.942 429 L 949 429 949 472.500 L 949 516 960 516 L 971 516 971.022 489.750 C 971.041 466.447, 971.250 463.046, 972.880 459.459 C 976.511 451.465, 984.048 447.474, 994.133 448.203 C 1000.874 448.691, 1000.179 449.673, 1001.999 437.081 C 1002.848 431.203, 1002.804 429.492, 1001.785 428.846 C 999.247 427.236, 986.688 427.989, 982.927 429.977 M 906.755 472.250 L 907.011 515.500 917.505 515.500 C 923.277 515.500, 928 515.163, 928 514.750 C 928 514.337, 928 494.875, 928 471.500 L 928 429 917.250 429 L 906.500 428.999 906.755 472.250 M 704.500 445.924 C 694.436 448.411, 689.494 454.750, 687.481 467.757 C 686.512 474.016, 688.683 485.109, 691.826 489.964 C 697.832 499.238, 712.900 501.966, 722.159 495.454 C 732.959 487.858, 735.486 465.873, 726.918 454.046 C 722.264 447.621, 712.277 444.003, 704.500 445.924 M 1169.759 446.373 C 1163.939 448.528, 1161.302 450.629, 1158.571 455.288 C 1154.313 462.554, 1153.456 477.481, 1156.805 486.056 C 1162.248 499.995, 1181.667 503.434, 1192.211 492.327 C 1196.174 488.153, 1198.169 481.663, 1198.173 472.935 C 1198.180 459.977, 1194.887 452.411, 1187.461 448.316 C 1182.236 445.434, 1174.569 444.593, 1169.759 446.373 M 1010.304 491.900 C 1005.840 494.700, 1003.667 498.448, 1003.667 503.345 C 1003.667 508.867, 1005.712 512.891, 1010 515.801 C 1016.218 520.021, 1025.177 517.362, 1028.527 510.302 C 1030.480 506.186, 1030.075 500.289, 1027.576 496.476 C 1023.753 490.641, 1015.708 488.510, 1010.304 491.900 M 853 563.456 L 853 572.051 849.879 570.437 C 844.113 567.456, 837.668 570.448, 835.067 577.315 C 832.634 583.734, 834.651 592.183, 839.311 595.100 C 842.988 597.401, 848.137 597.091, 851.124 594.388 C 852.852 592.824, 853 592.820, 853 594.345 C 853 595.446, 853.841 596, 855.513 596 L 858.026 596 857.743 575.750 C 857.462 555.665, 857.441 555.497, 855.230 555.180 C 853.072 554.871, 853 555.137, 853 563.456 M 573.247 558.657 C 569.446 559.472, 564.300 565.174, 562.988 570.024 C 561.450 575.711, 562.265 585.060, 564.655 589.140 C 568.888 596.368, 577.120 598.810, 585.202 595.235 C 588.772 593.656, 590.174 592.272, 591.976 588.549 C 593.925 584.524, 594.183 582.719, 593.787 575.884 C 593.301 567.494, 591.956 564.534, 586.938 560.818 C 584.417 558.950, 577.194 557.810, 573.247 558.657 M 704.362 559.500 C 703.569 561.564, 704.644 564, 706.346 564 C 707.121 564, 708.315 563.325, 709 562.500 C 709.993 561.303, 709.993 560.697, 709 559.500 C 708.315 558.675, 707.121 558, 706.346 558 C 705.571 558, 704.678 558.675, 704.362 559.500 M 1026.362 559.500 C 1025.569 561.564, 1026.644 564, 1028.346 564 C 1030.393 564, 1032.135 561.514, 1031.410 559.627 C 1030.626 557.584, 1027.131 557.496, 1026.362 559.500 M 575.284 562.727 C 569.544 563.772, 565.829 573.835, 567.855 582.850 C 569.601 590.621, 574.981 594.151, 581.699 591.934 C 589.901 589.227, 591.699 571.141, 584.388 564.884 C 582.218 563.027, 578.489 562.143, 575.284 562.727 M 1007 566 C 1007 569.333, 1006.667 570, 1005 570 C 1003.630 570, 1003 570.667, 1003 572.117 C 1003 573.741, 1003.465 574.112, 1005 573.710 C 1006.889 573.216, 1007 573.680, 1007 582.029 C 1007 593.428, 1007.862 595.696, 1012.531 596.572 C 1016.889 597.389, 1021.219 595.735, 1020.389 593.571 C 1020.004 592.567, 1018.624 592.149, 1016.159 592.290 L 1012.500 592.500 1012.216 582.947 L 1011.932 573.394 1015.466 573.806 C 1018.525 574.163, 1019 573.935, 1019 572.109 C 1019 570.365, 1018.394 570, 1015.500 570 C 1012.083 570, 1012 569.905, 1012 566 C 1012 562.400, 1011.750 562, 1009.500 562 C 1007.250 562, 1007 562.400, 1007 566 M 607.455 571.455 C 605.190 573.720, 605 573.758, 605 571.955 C 605 570.513, 604.313 570, 602.383 570 C 600.158 570, 599.857 570.336, 600.370 572.250 C 600.701 573.487, 600.979 579.337, 600.986 585.250 C 600.999 595.329, 601.125 596, 603 596 C 604.823 596, 605 595.333, 605 588.450 C 605 579.348, 606.760 575.198, 610.979 574.354 C 615.484 573.453, 616.246 569, 611.896 569 C 610.803 569, 608.805 570.105, 607.455 571.455 M 623.763 570.565 C 620.102 572.552, 618 576.905, 618 582.500 C 618 587.657, 620.055 592.424, 622.945 593.970 C 625.979 595.594, 631.508 595.175, 634.115 593.124 L 636.500 591.247 636.147 595.874 C 635.953 598.418, 635.096 601.288, 634.242 602.250 C 631.924 604.863, 626.678 604.493, 623.855 601.517 C 621.326 598.851, 618 598.167, 618 600.313 C 618 601.035, 619.329 602.899, 620.953 604.455 C 625.178 608.502, 632.529 609.172, 636.369 605.860 C 640.018 602.712, 640.948 598.049, 640.976 582.750 C 640.999 570.659, 640.897 570, 639 570 C 637.898 570, 637 570.667, 637 571.485 C 637 572.697, 636.402 572.606, 633.750 570.989 C 629.911 568.648, 627.485 568.545, 623.763 570.565 M 650.966 571.682 C 648 574.177, 647.902 574.455, 649.557 575.665 C 651.073 576.774, 651.541 576.673, 652.725 574.983 C 654.279 572.764, 658.915 572.315, 660.800 574.200 C 661.460 574.860, 662 576.597, 662 578.061 C 662 580.526, 661.615 580.766, 656.750 581.330 C 647.951 582.351, 644.148 589.239, 649.455 594.545 C 652.215 597.306, 656.151 597.678, 660 595.542 C 662.146 594.351, 662.727 594.359, 664.105 595.601 C 666.362 597.635, 669.285 596.402, 667.982 593.966 C 667.442 592.957, 667 588.937, 667 585.034 C 667 577.184, 665.231 571.729, 662.150 570.080 C 658.670 568.218, 654.347 568.837, 650.966 571.682 M 682.250 570.989 C 679.598 572.606, 679 572.697, 679 571.485 C 679 570.667, 678.102 570, 677 570 C 675.103 570, 675 570.667, 675 583 C 675 595.814, 675.032 596, 677.250 596.002 C 679.440 596.005, 679.491 595.766, 679.180 587.027 C 678.877 578.552, 679.001 577.909, 681.384 575.525 C 684.357 572.553, 688.027 572.267, 690.345 574.829 C 691.645 576.265, 692 578.733, 692 586.329 L 692 596 694.611 596 L 697.221 596 696.841 584.897 C 696.475 574.201, 696.359 573.705, 693.675 571.397 C 690.288 568.484, 686.576 568.351, 682.250 570.989 M 718.389 571.342 C 713.173 575.828, 715.618 583.042, 722.876 584.582 C 727.735 585.613, 730 586.947, 730 588.779 C 730 593.418, 722.509 594.733, 719.302 590.657 C 718.026 589.035, 716.879 588.516, 715.579 588.972 C 713.853 589.578, 713.951 589.913, 716.768 593.066 C 719.514 596.139, 720.379 596.500, 725.005 596.500 C 729.428 596.500, 730.521 596.095, 732.587 593.694 C 735.326 590.510, 735.745 585.863, 733.464 583.970 C 732.619 583.268, 729.606 581.938, 726.770 581.013 C 723.933 580.089, 721.163 578.620, 720.614 577.750 C 718.123 573.801, 726.354 571.052, 729.128 574.906 C 730.099 576.255, 731.079 576.593, 732.482 576.061 C 734.347 575.355, 734.277 575.124, 731.309 572.155 C 727.342 568.188, 722.416 567.878, 718.389 571.342 M 745.420 570.827 C 741.220 573.468, 739.665 577.698, 740.197 585.042 C 740.551 589.945, 741.146 591.600, 743.340 593.794 C 745.619 596.074, 746.905 596.500, 751.500 596.500 C 756.056 596.500, 757.387 596.067, 759.584 593.871 C 764.629 588.825, 764.685 577.230, 759.687 572.233 C 756.318 568.864, 749.596 568.201, 745.420 570.827 M 779 569.709 C 778.175 570.013, 776.712 570.947, 775.750 571.785 C 774.174 573.158, 774 573.145, 774 571.655 C 774 570.606, 773.176 569.999, 771.750 569.998 C 769.516 569.997, 769.502 570.091, 769.806 582.998 C 770.090 595.105, 770.245 596, 772.056 596 C 773.844 596, 774 595.243, 774 586.573 C 774 577.579, 774.121 577.050, 776.635 575.073 C 778.084 573.933, 780.309 573, 781.578 573 C 785.630 573, 787 576.467, 787 586.723 C 787 595.952, 787.013 596, 789.500 596 C 791.965 596, 792 595.885, 791.994 587.750 C 791.988 577.862, 790.686 572.594, 787.739 570.529 C 785.565 569.007, 781.857 568.659, 779 569.709 M 800.635 571.073 C 798.758 572.549, 798 574.076, 798 576.381 C 798 580.953, 799.706 582.740, 805.988 584.747 C 809.600 585.900, 811.594 587.115, 811.821 588.298 C 812.735 593.073, 805.543 594.746, 801.702 590.652 C 799.468 588.270, 797 588.143, 797 590.409 C 797 591.092, 798.161 592.742, 799.581 594.076 C 801.602 595.975, 803.245 596.500, 807.167 596.500 C 811.412 596.500, 812.540 596.074, 814.587 593.694 C 817.422 590.398, 817.719 585.946, 815.250 583.762 C 814.288 582.911, 811.298 581.602, 808.607 580.854 C 802.976 579.288, 800.915 577.012, 802.930 574.584 C 804.833 572.291, 809.594 572.582, 811.356 575.098 C 812.492 576.720, 813.228 576.972, 814.597 576.206 C 816.211 575.302, 816.092 574.939, 813.261 572.107 C 809.498 568.344, 804.613 567.944, 800.635 571.073 M 871.388 569.929 C 863.580 573.273, 861.682 586.255, 867.972 593.294 C 870.473 596.094, 871.470 596.500, 875.845 596.500 C 882.675 596.500, 889.850 591.308, 885.387 589.595 C 884.344 589.195, 882.856 589.726, 881.530 590.972 C 878.411 593.902, 873.637 593.625, 871.073 590.365 C 869.933 588.916, 869 586.891, 869 585.865 C 869 584.181, 869.887 584, 878.130 584 L 887.260 584 886.740 579.382 C 886.078 573.509, 882.790 570.008, 877.403 569.438 C 875.256 569.210, 872.550 569.431, 871.388 569.929 M 895.514 571.234 C 893.486 572.979, 892.667 574.606, 892.667 576.889 C 892.667 581.072, 894.860 583.152, 901.263 585.044 C 904.660 586.048, 906.608 587.202, 906.827 588.342 C 907.739 593.073, 899.666 594.901, 896.323 590.721 C 895.320 589.468, 893.712 588.601, 892.750 588.794 C 890.365 589.274, 890.547 590.275, 893.573 593.300 C 898.282 598.010, 906.279 598.004, 909.988 593.288 C 914.152 587.995, 912.056 583.715, 904.017 581.094 C 898.279 579.223, 896.286 577.304, 897.309 574.636 C 898.217 572.270, 904.366 572.458, 906.128 574.906 C 907.063 576.205, 908.095 576.585, 909.370 576.101 C 911.139 575.428, 911.112 575.242, 908.868 572.633 C 905.396 568.597, 899.320 567.960, 895.514 571.234 M 934.315 570.007 C 929.728 571.855, 928.589 578.332, 932.250 581.754 C 933.487 582.911, 936.607 584.385, 939.182 585.030 C 944.226 586.294, 945.593 588.023, 943.961 591.072 C 942.415 593.961, 936.692 593.658, 933.790 590.534 C 930.947 587.472, 928.100 588.451, 929.926 591.862 C 932.389 596.465, 939.681 598.251, 944.928 595.537 C 948.078 593.908, 949 592.199, 949 587.990 C 949 584.160, 947.046 582.450, 941.016 581.004 C 935.583 579.700, 933.559 577.540, 935.134 574.724 C 936.488 572.306, 941.529 572.490, 943.303 575.022 C 944.911 577.318, 948.483 576.702, 947.557 574.289 C 947.251 573.490, 947 572.660, 947 572.444 C 947 572.228, 945.672 571.365, 944.050 570.526 C 940.788 568.839, 937.632 568.671, 934.315 570.007 M 960.500 570.420 C 956.679 572.129, 955.032 574.932, 954.321 580.939 C 953.205 590.357, 957.945 596.987, 965.800 596.996 C 973.286 597.005, 978 591.597, 978 583 C 978 572.033, 969.904 566.214, 960.500 570.420 M 990.897 571.740 C 987.766 574.375, 987.664 574.394, 988.227 572.240 C 988.714 570.378, 988.406 570, 986.406 570 L 984 570 984 583 L 984 596 986.500 596 C 988.967 596, 989 595.891, 989 587.635 C 989 580.686, 989.351 578.824, 991.073 576.635 C 992.243 575.146, 994.151 574, 995.456 574 C 996.903 574, 997.957 573.274, 998.275 572.058 C 999.325 568.042, 995.489 567.876, 990.897 571.740 M 1042.898 571.285 C 1036.648 575.488, 1035.832 588.675, 1041.493 593.993 C 1045.103 597.385, 1051.635 597.768, 1055.923 594.838 C 1059.971 592.073, 1060.715 590.488, 1058.387 589.595 C 1057.344 589.195, 1055.856 589.726, 1054.530 590.972 C 1050.168 595.070, 1044.008 592.913, 1042.470 586.750 L 1041.783 584 1050.892 584 L 1060 584 1060 579.900 C 1060 576.571, 1059.361 575.161, 1056.600 572.400 C 1052.455 568.255, 1047.949 567.888, 1042.898 571.285 M 1071 569.709 C 1067.966 570.825, 1066 573.385, 1066 576.221 C 1066 580.888, 1067.685 582.829, 1073.146 584.451 C 1080.846 586.737, 1082.397 588.460, 1079.429 591.429 C 1077.081 593.776, 1072.272 593.392, 1069.702 590.652 C 1067.468 588.270, 1065 588.143, 1065 590.409 C 1065 591.092, 1066.161 592.742, 1067.581 594.076 C 1069.602 595.975, 1071.245 596.500, 1075.167 596.500 C 1079.412 596.500, 1080.540 596.074, 1082.587 593.694 C 1085.422 590.398, 1085.719 585.946, 1083.250 583.762 C 1082.287 582.911, 1079.298 581.602, 1076.607 580.854 C 1070.976 579.288, 1068.915 577.012, 1070.930 574.584 C 1072.833 572.291, 1077.594 572.582, 1079.356 575.098 C 1080.492 576.720, 1081.228 576.972, 1082.597 576.206 C 1084.211 575.302, 1084.092 574.939, 1081.261 572.107 C 1078.242 569.089, 1074.847 568.295, 1071 569.709 M 1108.314 570.894 C 1104.676 573.176, 1103.515 575.045, 1102.657 580 C 1101.813 584.869, 1103.403 590.858, 1106.313 593.767 C 1109.938 597.393, 1116.481 597.873, 1120.923 594.838 C 1124.971 592.073, 1125.715 590.488, 1123.387 589.595 C 1122.344 589.195, 1120.856 589.726, 1119.530 590.972 C 1116.411 593.902, 1111.637 593.625, 1109.073 590.365 C 1107.933 588.916, 1107 586.891, 1107 585.865 C 1107 584.183, 1107.884 584, 1116 584 L 1125 584 1125 580.016 C 1125 571.567, 1115.510 566.379, 1108.314 570.894 M 1138.727 571 C 1135.692 573.388, 1134.862 573.522, 1135.638 571.500 C 1136.059 570.403, 1135.513 570, 1133.607 570 L 1131 570 1131 583 L 1131 596 1133.500 596 C 1135.990 596, 1136 595.962, 1136 586.573 C 1136 577.579, 1136.121 577.050, 1138.635 575.073 C 1141.727 572.641, 1143.882 572.463, 1146.559 574.419 C 1148.258 575.660, 1148.500 577.093, 1148.500 585.915 C 1148.500 595.698, 1148.566 595.993, 1150.750 595.996 C 1152.931 596, 1153 595.700, 1152.986 586.250 C 1152.969 574.202, 1152.480 572.299, 1148.923 570.460 C 1145.046 568.455, 1141.739 568.631, 1138.727 571 M 1180.256 570.029 C 1173.900 572.584, 1171.645 586.048, 1176.589 591.923 C 1178.721 594.457, 1179.917 595, 1183.366 595 C 1185.670 595, 1188.555 594.299, 1189.777 593.443 C 1191.973 591.905, 1192 591.939, 1192 596.288 C 1192 599.283, 1191.415 601.219, 1190.171 602.345 C 1187.436 604.821, 1182.754 604.432, 1180 601.500 C 1177.494 598.832, 1174 598.140, 1174 600.311 C 1174 602.164, 1177.735 605.949, 1180.661 607.061 C 1183.934 608.305, 1188.357 608.250, 1191.257 606.929 C 1195.864 604.829, 1196.471 602.525, 1196.835 585.750 C 1197.168 570.337, 1197.131 570, 1195.088 570 C 1193.908 570, 1193 570.646, 1193 571.485 C 1193 572.697, 1192.402 572.606, 1189.750 570.989 C 1186.250 568.855, 1183.794 568.606, 1180.256 570.029 M 1211.452 571.646 C 1209.100 574.184, 1209 574.205, 1209 572.146 C 1209 570.667, 1208.379 570, 1207 570 C 1205.103 570, 1205 570.667, 1205 583 C 1205 595.875, 1205.022 596, 1207.286 596 C 1209.488 596, 1209.570 595.694, 1209.536 587.586 C 1209.504 580.033, 1209.748 578.908, 1211.924 576.586 C 1213.258 575.164, 1215.395 574, 1216.674 574 C 1218.488 574, 1219 573.450, 1219 571.500 C 1219 568.011, 1214.744 568.094, 1211.452 571.646 M 1228.381 570.910 C 1224.823 573.079, 1223 577.373, 1223 583.584 C 1223 589.573, 1224.421 592.676, 1228.225 594.996 C 1234.825 599.020, 1242.731 596.630, 1245.471 589.781 C 1247.439 584.863, 1247.404 581.051, 1245.345 575.904 C 1242.728 569.363, 1234.762 567.018, 1228.381 570.910 M 1289.250 570.989 C 1286.598 572.606, 1286 572.697, 1286 571.485 C 1286 570.667, 1285.102 570, 1284 570 C 1282.071 570, 1282 570.667, 1282 588.786 C 1282 606.905, 1282.071 607.571, 1284 607.571 C 1285.819 607.571, 1286 606.905, 1286 600.213 L 1286 592.855 1288.635 594.927 C 1291.949 597.534, 1295.575 597.556, 1299.775 594.996 C 1303.766 592.562, 1305 589.574, 1305 582.339 C 1305 571.183, 1297.636 565.876, 1289.250 570.989 M 1316.314 570.894 C 1312.006 573.597, 1310.667 576.468, 1310.667 583 C 1310.667 586.030, 1311.220 589.543, 1311.897 590.808 C 1313.577 593.947, 1318.844 596.992, 1322.602 596.996 C 1325.709 597, 1332.021 593.490, 1332.715 591.373 C 1333.431 589.189, 1329.733 588.902, 1327.530 590.972 C 1324.411 593.902, 1319.637 593.625, 1317.073 590.365 C 1315.933 588.916, 1315 586.891, 1315 585.865 C 1315 584.186, 1315.880 584, 1323.833 584 C 1328.692 584, 1332.904 583.763, 1333.194 583.473 C 1334.402 582.265, 1332.044 574.590, 1329.766 572.311 C 1326.363 568.909, 1320.468 568.287, 1316.314 570.894 M 704.221 582.990 C 704.494 595.709, 704.547 595.980, 706.750 595.990 C 708.968 596, 709 595.818, 709 583 L 709 570 706.471 570 L 703.942 570 704.221 582.990 M 1026.375 573.125 C 1026.719 574.844, 1027 580.694, 1027 586.125 C 1027 595.333, 1027.135 596, 1029 596 C 1030.897 596, 1031 595.333, 1031 583 L 1031 570 1028.375 570 C 1025.968 570, 1025.802 570.260, 1026.375 573.125 M 1253 580.777 C 1253 593.130, 1253.996 595.533, 1259.545 596.574 C 1263.079 597.237, 1269 595.549, 1269 593.879 C 1269 593.395, 1269.498 593, 1270.107 593 C 1270.716 593, 1270.955 593.675, 1270.638 594.500 C 1270.220 595.590, 1270.755 596, 1272.593 596 L 1275.123 596 1274.909 583 C 1274.696 570.086, 1274.679 570, 1272.347 570 C 1270.050 570, 1270 570.202, 1270 579.427 C 1270 588.421, 1269.879 588.950, 1267.365 590.927 C 1264.029 593.552, 1261.553 593.553, 1258.933 590.933 C 1257.083 589.083, 1256.899 587.876, 1257.183 579.431 C 1257.493 570.218, 1257.447 569.996, 1255.250 569.998 C 1253.056 570, 1253 570.268, 1253 580.777 M 624.405 575.105 C 623.090 576.558, 622.500 578.693, 622.500 582 C 622.500 589.438, 627.259 593.072, 632.986 590.008 C 635.326 588.755, 637.386 582.672, 636.570 579.421 C 635.063 573.418, 628.151 570.966, 624.405 575.105 M 746.439 575.068 C 743.775 578.011, 743.753 587.959, 746.405 590.893 C 749.230 594.018, 754.293 593.712, 757.026 590.250 C 758.798 588.005, 759.118 586.539, 758.767 582.265 C 758.508 579.106, 757.615 576.232, 756.514 575.015 C 754.087 572.334, 748.889 572.361, 746.439 575.068 M 841.073 575.635 C 838.032 579.500, 838.166 587.867, 841.314 590.826 C 846.885 596.059, 853 591.651, 853 582.404 C 853 578.213, 852.534 576.643, 850.811 575.039 C 847.723 572.162, 843.606 572.414, 841.073 575.635 M 871.245 574.250 C 870.695 574.938, 869.934 576.513, 869.555 577.750 C 868.885 579.936, 869.066 580, 875.933 580 C 883.535 580, 884.316 579.324, 881.443 575.223 C 879.680 572.705, 872.991 572.067, 871.245 574.250 M 961 575 C 959.444 576.556, 959 578.333, 959 583 C 959 589.992, 961.106 593, 966 593 C 970.894 593, 973 589.992, 973 583 C 973 576.008, 970.894 573, 966 573 C 964.333 573, 962.111 573.889, 961 575 M 1045.400 573.765 C 1044.310 574.493, 1042 578.345, 1042 579.434 C 1042 579.745, 1045.150 580, 1049 580 C 1056.532 580, 1057.311 579.316, 1054.443 575.223 C 1052.874 572.983, 1047.797 572.165, 1045.400 573.765 M 1110.400 573.765 C 1109.310 574.493, 1107 578.345, 1107 579.434 C 1107 579.745, 1110.150 580, 1114 580 C 1121.532 580, 1122.311 579.316, 1119.443 575.223 C 1117.874 572.983, 1112.797 572.165, 1110.400 573.765 M 1180.667 574.816 C 1178.644 577.051, 1177.556 582.093, 1178.384 585.393 C 1179.955 591.653, 1186.172 592.961, 1190.411 587.923 C 1193.204 584.604, 1193.684 581.153, 1191.837 577.684 C 1189.284 572.891, 1183.705 571.458, 1180.667 574.816 M 1229.344 575.598 C 1227.050 579.098, 1227.013 586.840, 1229.273 590.292 C 1230.600 592.318, 1231.858 592.996, 1234.273 592.985 C 1238.060 592.967, 1239.290 592.281, 1240.850 589.316 C 1243.165 584.919, 1241.867 575.946, 1238.600 573.765 C 1237.995 573.361, 1236.048 573.024, 1234.273 573.015 C 1231.892 573.004, 1230.600 573.681, 1229.344 575.598 M 1289.306 575.413 C 1286.845 577.530, 1286.500 578.524, 1286.500 583.502 C 1286.500 588.259, 1286.882 589.486, 1288.861 591.088 C 1291.949 593.589, 1296.219 593.520, 1298.561 590.932 C 1301.225 587.989, 1301.247 578.041, 1298.595 575.107 C 1296.086 572.331, 1292.762 572.441, 1289.306 575.413 M 1318.400 573.765 C 1317.310 574.493, 1315 578.345, 1315 579.434 C 1315 579.745, 1318.150 580, 1322 580 C 1329.532 580, 1330.311 579.316, 1327.443 575.223 C 1325.874 572.983, 1320.797 572.165, 1318.400 573.765 M 654.694 585.181 C 652.318 586.047, 651.935 586.685, 652.194 589.352 C 652.445 591.935, 652.985 592.556, 655.201 592.812 C 659.593 593.319, 662 591.426, 662 587.465 C 662 584.515, 661.666 584.012, 659.750 584.079 C 658.513 584.122, 656.237 584.618, 654.694 585.181" stroke="none" fill="#004d65" fill-rule="evenodd"/>
</svg>